<svg width="40" height="40" viewBox="0 0 40 40" fill="none" xmlns="http://www.w3.org/2000/svg">
<g clip-path="url(#clip0_358_455)">
<mask id="mask0_358_455" style="mask-type:luminance" maskUnits="userSpaceOnUse" x="0" y="0" width="40" height="40">
<path d="M0 0H40V40H0V0Z" fill="white"/>
</mask>
<g mask="url(#mask0_358_455)">
<path fill-rule="evenodd" clip-rule="evenodd" d="M20.19 3C10.6954 3 3 10.6968 3 20.19C3 29.6832 10.6954 37.38 20.19 37.38C29.6832 37.38 37.38 29.6832 37.38 20.19C37.38 10.6968 29.6832 3 20.19 3ZM20.3906 30.2433C14.8496 30.2433 10.363 25.7452 10.363 20.19C10.363 14.6348 14.8496 10.1367 20.3906 10.1367C23.098 10.1367 25.3613 11.1352 27.0975 12.7568L24.2698 15.5902V15.5845C23.2169 14.5789 21.8818 14.0632 20.3906 14.0632C17.0815 14.0632 14.3927 16.8652 14.3927 20.1843C14.3927 23.5005 17.0815 26.3111 20.3906 26.3111C23.3931 26.3111 25.4358 24.5892 25.857 22.2256H20.3906V18.3048H29.8236C29.9496 18.9781 30.017 19.68 30.017 20.4163C30.017 26.1607 26.1821 30.2433 20.3906 30.2433Z" fill="#09203F"/>
</g>
</g>
<defs>
<clipPath id="clip0_358_455">
<rect width="40" height="40" fill="white"/>
</clipPath>
</defs>
</svg>
