<svg width="45" height="44" viewBox="0 0 45 44" fill="none" xmlns="http://www.w3.org/2000/svg">
<path d="M38.3125 4.8125H6.6875C5.92695 4.8125 5.3125 5.42695 5.3125 6.1875V37.8125C5.3125 38.573 5.92695 39.1875 6.6875 39.1875H38.3125C39.073 39.1875 39.6875 38.573 39.6875 37.8125V6.1875C39.6875 5.42695 39.073 4.8125 38.3125 4.8125ZM34.3422 14.8457H31.5965C29.4438 14.8457 29.027 15.8684 29.027 17.3723V20.6852H34.166L33.4957 25.8715H29.027V39.1875H23.6688V25.8758H19.1871V20.6852H23.6688V16.8609C23.6688 12.4223 26.3801 10.0031 30.3418 10.0031C32.241 10.0031 33.8695 10.1449 34.3465 10.2094V14.8457H34.3422Z" fill="#09203F"/>
</svg>
