<svg width="32" height="32" viewBox="0 0 32 32" fill="none" xmlns="http://www.w3.org/2000/svg">
<path d="M21.2665 29.3334L15.5998 23.6667L17.4665 21.8L21.2665 25.6L28.7998 18.0667L30.6665 19.9334L21.2665 29.3334ZM5.33317 26.6667C4.59984 26.6667 3.97184 26.4054 3.44917 25.8827C2.92651 25.36 2.66562 24.7325 2.66651 24V8.00004C2.66651 7.26671 2.92784 6.63871 3.45051 6.11604C3.97317 5.59338 4.60073 5.33249 5.33317 5.33338H26.6665C27.3998 5.33338 28.0278 5.59471 28.5505 6.11738C29.0732 6.64004 29.3341 7.2676 29.3332 8.00004V13.8L21.2998 21.8334L17.4665 18L11.8332 23.6334L14.8665 26.6667H5.33317ZM15.9998 17.3334L26.6665 10.6667V8.00004L15.9998 14.6667L5.33317 8.00004V10.6667L15.9998 17.3334Z" fill="white"/>
</svg>
