<svg width="26" height="24" viewBox="0 0 26 24" fill="none" xmlns="http://www.w3.org/2000/svg">
<path d="M15.337 19.07C15.337 19.68 14.916 20.48 14.3791 20.79L12.8949 21.7C11.516 22.51 9.60019 21.6 9.60019 19.98V14.63C9.60019 13.92 9.17914 13.01 8.74756 12.51L4.70545 8.47001C4.16861 7.96001 3.74756 7.06001 3.74756 6.45001V4.13001C3.74756 2.92001 4.70545 2.01001 5.87387 2.01001H19.916C21.0844 2.01001 22.0423 2.92001 22.0423 4.03001V6.25001C22.0423 7.06001 21.5055 8.07001 20.9791 8.57001" stroke="#537895" stroke-opacity="0.89" stroke-width="1.5" stroke-miterlimit="10" stroke-linecap="round" stroke-linejoin="round"/>
<path d="M21.179 17.1201L20.1263 16.1201M17.179 16.5201C18.0723 16.5201 18.9291 16.183 19.5608 15.5829C20.1925 14.9827 20.5474 14.1688 20.5474 13.3201C20.5474 12.4714 20.1925 11.6575 19.5608 11.0574C18.9291 10.4573 18.0723 10.1201 17.179 10.1201C16.2856 10.1201 15.4288 10.4573 14.7971 11.0574C14.1654 11.6575 13.8105 12.4714 13.8105 13.3201C13.8105 14.1688 14.1654 14.9827 14.7971 15.5829C15.4288 16.183 16.2856 16.5201 17.179 16.5201Z" stroke="#537895" stroke-opacity="0.89" stroke-width="1.5" stroke-linecap="round" stroke-linejoin="round"/>
</svg>
