<svg width="29" height="26" viewBox="0 0 29 26" fill="none" xmlns="http://www.w3.org/2000/svg">
<path d="M20.5692 0.483887C18.011 0.483887 15.7712 1.64828 14.375 3.61646C12.9788 1.64828 10.739 0.483887 8.1808 0.483887C6.14443 0.486316 4.19212 1.34362 2.75219 2.86772C1.31226 4.39181 0.502295 6.45823 0.5 8.61363C0.5 17.7924 13.3579 25.2219 13.9055 25.5287C14.0498 25.6109 14.2111 25.6539 14.375 25.6539C14.5389 25.6539 14.7002 25.6109 14.8445 25.5287C15.3921 25.2219 28.25 17.7924 28.25 8.61363C28.2477 6.45823 27.4377 4.39181 25.9978 2.86772C24.5579 1.34362 22.6056 0.486316 20.5692 0.483887ZM14.375 23.4045C12.1129 22.0093 2.48214 15.6537 2.48214 8.61363C2.48411 7.01455 3.08513 5.48156 4.15341 4.35084C5.22169 3.22012 6.67003 2.58397 8.1808 2.58188C10.5903 2.58188 12.6134 3.94034 13.4583 6.12226C13.5329 6.31465 13.6599 6.47921 13.8232 6.59502C13.9864 6.71084 14.1785 6.77267 14.375 6.77267C14.5715 6.77267 14.7636 6.71084 14.9268 6.59502C15.0901 6.47921 15.2171 6.31465 15.2917 6.12226C16.1366 3.9364 18.1597 2.58188 20.5692 2.58188C22.08 2.58397 23.5283 3.22012 24.5966 4.35084C25.6649 5.48156 26.2659 7.01455 26.2679 8.61363C26.2679 15.6432 16.6346 22.008 14.375 23.4045Z" fill="#09203F"/>
</svg>
