<svg width="49" height="48" viewBox="0 0 49 48" fill="none" xmlns="http://www.w3.org/2000/svg">
<path d="M34.7742 40.56C32.8142 42.46 30.6742 42.16 28.6142 41.26C26.4342 40.34 24.4342 40.3 22.1342 41.26C19.2542 42.5 17.7342 42.14 16.0142 40.56C6.25416 30.5 7.69416 15.18 18.7742 14.62C21.4742 14.76 23.3542 16.1 24.9342 16.22C27.2942 15.74 29.5542 14.36 32.0742 14.54C35.0942 14.78 37.3742 15.98 38.8742 18.14C32.6342 21.88 34.1142 30.1 39.8342 32.4C38.6942 35.4 37.2142 38.38 34.7542 40.58L34.7742 40.56ZM24.7342 14.5C24.4342 10.04 28.0542 6.36 32.2142 6C32.7942 11.16 27.5342 15 24.7342 14.5Z" fill="#09203F"/>
</svg>
