<svg width="1722" height="303" viewBox="0 0 1722 303" fill="none" xmlns="http://www.w3.org/2000/svg">
<path d="M206.107 174.37C206.107 192.47 206.127 210.44 206.097 228.41C206.077 241.54 206.107 241.78 193.457 244.23C185.217 245.83 176.807 246.56 168.497 247.82C160.427 249.04 153.907 244.59 146.857 242.1C143.487 240.91 140.247 239.37 136.087 237.62C136.087 240.41 136.067 242.48 136.087 244.55C136.137 250.19 134.037 253.04 128.747 253.79C118.507 255.25 108.267 257.25 97.9866 257.55C92.3966 257.71 86.5766 255.21 81.1166 253.23C69.3666 248.98 57.7466 244.36 46.1266 239.76C41.0166 237.74 35.9866 235.5 30.9866 233.2C26.7166 231.24 25.1566 227.71 25.2166 223.09C25.3966 208.93 25.3066 194.77 25.5766 180.62C25.6366 177.28 24.7966 175.47 21.4866 174.43C16.3566 172.81 11.3066 170.86 6.32659 168.79C1.33659 166.72 -2.62342 161.44 2.15658 154.91C14.9466 137.41 27.3366 119.63 40.0266 102.06C43.3566 97.44 47.4566 93.38 50.7766 88.75C54.8666 83.06 58.3766 76.96 62.3866 71.21C67.7966 63.46 73.3966 55.8399 78.9866 48.2099C83.1766 42.4999 88.3066 45.77 92.6866 47.48C111.257 54.71 129.747 62.14 148.067 69.97C151.807 71.57 155.087 74.8 157.887 77.9C166.907 87.91 175.557 98.25 184.417 108.4C190.017 114.82 195.697 121.17 201.427 127.48C210.617 137.59 219.947 147.57 229.067 157.75C234.507 163.82 232.687 169.3 224.837 170.89C218.887 172.13 212.887 173.13 206.107 174.37ZM198.957 236.01C198.957 233.53 198.957 231.71 198.957 229.9C199.007 210.9 199.247 191.9 198.957 172.91C198.887 168.07 200.917 167.2 204.917 166.76C211.317 166.06 217.657 164.83 225.017 163.67C198.557 134.46 172.867 106.11 146.557 77.06C143.337 81.31 140.297 85.07 137.527 89.02C133.167 95.23 129.047 101.6 124.727 107.83C120.827 113.47 116.797 119.03 112.827 124.63C105.037 135.61 97.2666 146.6 89.4666 157.57C83.0666 166.56 76.6366 175.53 69.3566 185.71C78.6966 184.53 86.6366 183.52 95.1166 182.45C95.1166 205.76 95.1166 228.18 95.1166 250.62C105.347 249.32 115.107 247.99 124.897 246.87C128.197 246.49 129.757 245.41 129.727 241.68C129.607 226.52 129.797 211.35 129.877 196.19C129.887 193.24 129.877 190.29 129.877 187.23C141.527 185.51 152.567 183.87 164.137 182.16C164.137 201.81 164.137 221.21 164.137 241.13C176.037 239.39 187.357 237.72 198.957 236.01Z" fill="#EC801D"/>
<path d="M287.047 0C289.097 0 290.877 0 293.317 0C293.317 1.81 293.317 3.57001 293.317 5.32001C293.317 102.46 293.297 199.59 293.387 296.73C293.387 301.27 292.667 304.01 287.047 302.53C287.047 201.9 287.047 101.18 287.047 0Z" fill="#0B0633"/>
<path d="M355.237 231.59V57.47H440.027C468.287 57.47 482.417 71.6 482.417 99.86V128.63C482.417 149.66 474.597 162.87 458.947 168.25L487.467 224.02L483.177 231.59H451.887L421.097 171.02H391.577V231.58H355.237V231.59ZM391.577 138.22H438.517C443.567 138.22 446.087 135.7 446.087 130.65V97.84C446.087 92.79 443.567 90.27 438.517 90.27H391.577V138.22Z" fill="#F5F4F4"/>
<path d="M514.217 190.71V139.23C514.217 111.98 527.847 98.3499 555.097 98.3499H587.907C615.157 98.3499 628.787 111.98 628.787 139.23V178.09H549.047V193.23C549.047 198.62 551.737 201.3 557.117 201.3H623.737V220.23L608.597 231.59H555.097C527.847 231.59 514.217 217.96 514.217 190.71ZM549.037 150.84H593.957V136.71C593.957 131.33 591.267 128.63 585.877 128.63H557.107C551.717 128.63 549.037 131.32 549.037 136.71V150.84Z" fill="#F5F4F4"/>
<path d="M663.097 231.59V98.3499H736.787C764.037 98.3499 777.667 111.98 777.667 139.23V231.59H742.847V136.71C742.847 131.33 740.157 128.63 734.767 128.63H697.927V231.59H663.097Z" fill="#F5F4F4"/>
<path d="M811.987 190.71V57.47H846.807V98.3499H890.207V128.63H846.807V193.23C846.807 198.62 849.497 201.3 854.887 201.3H892.737V220.23L877.597 231.59H852.867C825.607 231.59 811.987 217.96 811.987 190.71Z" fill="#F5F4F4"/>
<path d="M953.807 231.59C926.557 231.59 912.927 218.21 912.927 191.47C912.927 164.72 926.557 151.35 953.807 151.35H988.627V136.71C988.627 131.33 985.937 128.63 980.547 128.63H927.047V109.7L942.187 98.34H982.567C1009.82 98.34 1023.45 111.97 1023.45 139.22V231.58H953.807V231.59ZM947.747 193.23C947.747 198.62 950.437 201.3 955.827 201.3H988.637V178.59H955.827C950.437 178.59 947.747 181.28 947.747 186.67V193.23Z" fill="#F5F4F4"/>
<path d="M1057.77 183.14V44.85H1092.59V186.67C1092.59 197.1 1097.97 202.82 1108.74 203.83V234.11C1074.76 234.11 1057.77 217.12 1057.77 183.14Z" fill="#F5F4F4"/>
<path d="M1139.53 231.59V57.47H1182.93L1232.14 162.7L1281.35 57.47H1324.75V231.59H1288.41V121.56L1247.53 208.87H1216.74L1175.86 121.56V231.59H1139.53Z" fill="#F5F4F4"/>
<path d="M1397.43 231.59C1370.18 231.59 1356.55 218.21 1356.55 191.47C1356.55 164.72 1370.18 151.35 1397.43 151.35H1432.25V136.71C1432.25 131.33 1429.56 128.63 1424.17 128.63H1370.67V109.7L1385.81 98.34H1426.19C1453.44 98.34 1467.07 111.97 1467.07 139.22V231.58H1397.43V231.59ZM1391.38 193.23C1391.38 198.62 1394.07 201.3 1399.46 201.3H1432.27V178.59H1399.46C1394.07 178.59 1391.38 181.28 1391.38 186.67V193.23Z" fill="#F5F4F4"/>
<path d="M1501.4 190.71V57.47H1536.22V98.3499H1579.62V128.63H1536.22V193.23C1536.22 198.62 1538.91 201.3 1544.3 201.3H1582.15V220.23L1567.01 231.59H1542.28C1515.03 231.59 1501.4 217.96 1501.4 190.71Z" fill="#F5F4F4"/>
<path d="M1607.38 190.71V139.23C1607.38 111.98 1621.01 98.3499 1648.26 98.3499H1681.06C1708.31 98.3499 1721.94 111.98 1721.94 139.23V178.09H1642.2V193.23C1642.2 198.62 1644.89 201.3 1650.28 201.3H1716.9V220.23L1701.76 231.59H1648.26C1621.01 231.59 1607.38 217.96 1607.38 190.71ZM1642.21 150.84H1687.13V136.71C1687.13 131.33 1684.44 128.63 1679.05 128.63H1650.28C1644.89 128.63 1642.2 131.32 1642.2 136.71V150.84H1642.21Z" fill="#F5F4F4"/>
</svg>
