<svg width="40" height="40" viewBox="0 0 40 40" fill="none" xmlns="http://www.w3.org/2000/svg">
<path d="M19.7165 15L24.9998 20.2667V20C24.9998 18.6739 24.4731 17.4021 23.5354 16.4645C22.5977 15.5268 21.3259 15 19.9998 15H19.7165ZM12.5498 16.3333L15.1332 18.9167C15.0498 19.2667 14.9998 19.6167 14.9998 20C14.9998 21.3261 15.5266 22.5979 16.4643 23.5355C17.402 24.4732 18.6738 25 19.9998 25C20.3665 25 20.7332 24.95 21.0832 24.8667L23.6665 27.45C22.5498 28 21.3165 28.3333 19.9998 28.3333C17.7897 28.3333 15.6701 27.4554 14.1073 25.8926C12.5445 24.3298 11.6665 22.2101 11.6665 20C11.6665 18.6833 11.9998 17.45 12.5498 16.3333ZM3.33317 7.11667L7.13317 10.9167L7.88317 11.6667C5.13317 13.8333 2.9665 16.6667 1.6665 20C4.54984 27.3167 11.6665 32.5 19.9998 32.5C22.5832 32.5 25.0498 32 27.2998 31.1L28.0165 31.8L32.8832 36.6667L34.9998 34.55L5.44984 5M19.9998 11.6667C22.21 11.6667 24.3296 12.5446 25.8924 14.1074C27.4552 15.6702 28.3332 17.7899 28.3332 20C28.3332 21.0667 28.1165 22.1 27.7332 23.0333L32.6165 27.9167C35.1165 25.8333 37.1165 23.1 38.3332 20C35.4498 12.6833 28.3332 7.5 19.9998 7.5C17.6665 7.5 15.4332 7.91667 13.3332 8.66667L16.9498 12.25C17.8998 11.8833 18.9165 11.6667 19.9998 11.6667Z" fill="#09203F"/>
</svg>
