<svg width="56" height="56" viewBox="0 0 56 56" fill="none" xmlns="http://www.w3.org/2000/svg">
<path d="M28.2332 43.2833L27.9998 43.5167L27.7432 43.2833C16.6598 33.2267 9.33317 26.5767 9.33317 19.8333C9.33317 15.1667 12.8332 11.6667 17.4998 11.6667C21.0932 11.6667 24.5932 14 25.8298 17.1733H30.1698C31.4065 14 34.9065 11.6667 38.4998 11.6667C43.1665 11.6667 46.6665 15.1667 46.6665 19.8333C46.6665 26.5767 39.3398 33.2267 28.2332 43.2833ZM38.4998 7C34.4398 7 30.5432 8.89 27.9998 11.8533C25.4565 8.89 21.5598 7 17.4998 7C10.3132 7 4.6665 12.6233 4.6665 19.8333C4.6665 28.63 12.5998 35.84 24.6165 46.7367L27.9998 49.8167L31.3832 46.7367C43.3998 35.84 51.3332 28.63 51.3332 19.8333C51.3332 12.6233 45.6865 7 38.4998 7Z" fill="#EC801D"/>
</svg>
