<svg width="24" height="24" viewBox="0 0 24 24" fill="none" xmlns="http://www.w3.org/2000/svg">
<path d="M12 2C14.4863 2 16.5 3.98889 16.5 6.44444C16.5 8.9 14.4863 10.8889 12 10.8889C9.51375 10.8889 7.5 8.9 7.5 6.44444C7.5 3.98889 9.51375 2 12 2ZM16.5 13.7111C16.5 14.8889 16.185 17.6333 14.0363 20.7L13.125 15.3333L14.1825 13.2444C13.485 13.1667 12.7538 13.1111 12 13.1111C11.2462 13.1111 10.515 13.1667 9.8175 13.2444L10.875 15.3333L9.96375 20.7C7.815 17.6333 7.5 14.8889 7.5 13.7111C4.81125 14.4889 3 15.8889 3 17.5556V22H21V17.5556C21 15.8889 19.2 14.4889 16.5 13.7111Z" fill="#EC801D"/>
</svg>
