<svg width="35" height="34" viewBox="0 0 35 34" fill="none" xmlns="http://www.w3.org/2000/svg">
<path d="M0.75 7.61113C0.75 5.76935 1.29873 4.003 2.27549 2.70067C3.25224 1.39833 4.577 0.666687 5.95833 0.666687H28.875C30.2563 0.666687 31.5811 1.39833 32.5578 2.70067C33.5346 4.003 34.0833 5.76935 34.0833 7.61113V27.0556C34.0833 28.8974 33.5346 30.6637 32.5578 31.966C31.5811 33.2684 30.2563 34 28.875 34H5.95833C4.577 34 3.25224 33.2684 2.27549 31.966C1.29873 30.6637 0.75 28.8974 0.75 27.0556V7.61113ZM5.95833 4.00002C5.12953 4.00002 4.66938 4.05195 4.08333 4.83335C3.49728 5.61476 3.66667 6.50606 3.66667 7.61113V10.6667H31.1667V7.33335C31.1667 6.22828 31.3361 5.61476 30.75 4.83335C30.1639 4.05195 29.607 4.00002 28.7782 4.00002H5.95833ZM3.66667 27.0556C3.66667 28.1606 3.91395 29.052 4.5 29.8334C5.08605 30.6148 6.1712 30.6667 7 30.6667H28.25C29.0788 30.6667 29.7473 30.6148 30.3333 29.8334C30.9194 29.052 31.1667 28.1606 31.1667 27.0556V14H3.66667V27.0556ZM23.4583 23.4445C23.1821 23.4445 22.9171 23.5908 22.7218 23.8513C22.5264 24.1117 22.4167 24.465 22.4167 24.8334C22.4167 25.2017 22.5264 25.555 22.7218 25.8154C22.9171 26.0759 23.1821 26.2222 23.4583 26.2222H28.0417C28.3179 26.2222 28.5829 26.0759 28.7782 25.8154C28.9736 25.555 29.0833 25.2017 29.0833 24.8334C29.0833 24.465 28.9736 24.1117 28.7782 23.8513C28.5829 23.5908 28.3179 23.4445 28.0417 23.4445H23.4583Z" fill="#ec801d"/>
</svg>
