<svg width="20" height="20" viewBox="0 0 20 20" fill="none" xmlns="http://www.w3.org/2000/svg">
<path d="M3 15H4.5V13.5H15.5V15H17V11.15C17 10.8 16.9333 10.4707 16.8 10.162C16.6667 9.85334 16.4833 9.58267 16.25 9.35V7C16.25 6.45 16.054 5.97933 15.662 5.588C15.27 5.19667 14.7993 5.00067 14.25 5H11C10.8167 5 10.6417 5.025 10.475 5.075C10.3083 5.125 10.15 5.2 10 5.3C9.85 5.2 9.69167 5.125 9.525 5.075C9.35833 5.025 9.18334 5 9 5H5.75C5.2 5 4.729 5.196 4.337 5.588C3.945 5.98 3.74934 6.45067 3.75 7V9.35C3.51667 9.58334 3.33333 9.85434 3.2 10.163C3.06667 10.4717 3 10.8007 3 11.15V15ZM4.5 12V11C4.5 10.7167 4.596 10.479 4.788 10.287C4.98 10.095 5.21734 9.99934 5.5 10H14.5C14.7833 10 15.021 10.096 15.213 10.288C15.405 10.48 15.5007 10.7173 15.5 11V12H4.5ZM5.25 8.5V6.5H9.25V8.5H5.25ZM10.75 8.5V6.5H14.75V8.5H10.75ZM2 20C1.45 20 0.979002 19.804 0.587002 19.412C0.195002 19.02 -0.000664969 18.5493 1.69779e-06 18V2C1.69779e-06 1.45 0.196002 0.979002 0.588002 0.587002C0.980002 0.195002 1.45067 -0.000664969 2 1.69779e-06H18C18.55 1.69779e-06 19.021 0.196002 19.413 0.588002C19.805 0.980002 20.0007 1.45067 20 2V18C20 18.55 19.804 19.021 19.412 19.413C19.02 19.805 18.5493 20.0007 18 20H2ZM2 18H18V2H2V18Z" fill="#EC801D"/>
</svg>
