<svg width="24" height="24" viewBox="0 0 24 24" fill="none" xmlns="http://www.w3.org/2000/svg">
<path d="M14.125 12.118L15.5 13.5M14.125 12.118C14.4032 11.839 14.6236 11.5078 14.7738 11.1436C14.924 10.7793 15.0009 10.3891 15.0003 9.99506C14.9996 9.60107 14.9214 9.21105 14.77 8.84729C14.6186 8.48353 14.3971 8.15315 14.118 7.87501C13.839 7.59687 13.5078 7.37642 13.1436 7.22625C12.7793 7.07607 12.3891 6.99911 11.9951 6.99976C11.6011 7.00041 11.2111 7.07866 10.8473 7.23004C10.4835 7.38141 10.1532 7.60296 9.87501 7.88201C9.31329 8.4456 8.99845 9.20925 8.99976 10.005C9.00107 10.8007 9.31843 11.5633 9.88201 12.125C10.4456 12.6867 11.2092 13.0016 12.005 13.0003C12.8007 12.999 13.5633 12.6816 14.125 12.118Z" stroke="#09203F" stroke-width="1.5" stroke-linecap="round"/>
<path d="M5 15.216C4.353 13.562 4 11.801 4 10.143C4 5.646 7.582 2 12 2C16.418 2 20 5.646 20 10.143C20 14.605 17.447 19.813 13.463 21.674C13.0051 21.8884 12.5056 21.9996 12 21.9996C11.4944 21.9996 10.9949 21.8884 10.537 21.674C9.265 21.08 8.138 20.144 7.194 19" stroke="#09203F" stroke-width="1.5" stroke-linecap="round"/>
</svg>
