<svg width="24" height="24" viewBox="0 0 24 24" fill="none" xmlns="http://www.w3.org/2000/svg">
<g clip-path="url(#clip0_527_467)">
<path d="M20.4067 16.3467C19.3354 15.186 18.0355 14.2597 16.5886 13.6262C15.1418 12.9927 13.5795 12.6656 12 12.6656C10.4206 12.6656 8.85821 12.9927 7.41138 13.6262C5.96455 14.2597 4.66458 15.186 3.59334 16.3467C3.42795 16.5295 3.33544 16.7668 3.33334 17.0133V21.0133C3.33685 21.2762 3.44375 21.5272 3.63091 21.7118C3.81807 21.8965 4.07042 22 4.33334 22H19.6667C19.9319 22 20.1862 21.8946 20.3738 21.7071C20.5613 21.5196 20.6667 21.2652 20.6667 21V17C20.6614 16.7581 20.5691 16.5261 20.4067 16.3467Z" fill="#09203F"/>
<path d="M12 11.3333C14.5773 11.3333 16.6667 9.244 16.6667 6.66667C16.6667 4.08934 14.5773 2 12 2C9.42268 2 7.33334 4.08934 7.33334 6.66667C7.33334 9.244 9.42268 11.3333 12 11.3333Z" fill="#09203F"/>
</g>
<defs>
<clipPath id="clip0_527_467">
<rect width="24" height="24" fill="white"/>
</clipPath>
</defs>
</svg>
