<svg width="24" height="24" viewBox="0 0 24 24" fill="none" xmlns="http://www.w3.org/2000/svg">
<g clip-path="url(#clip0_527_471)">
<path d="M20.4066 16.3467C19.3354 15.186 18.0354 14.2597 16.5886 13.6262C15.1418 12.9927 13.5794 12.6656 12 12.6656C10.4205 12.6656 8.85818 12.9927 7.41135 13.6262C5.96452 14.2597 4.66455 15.186 3.59331 16.3467C3.42792 16.5295 3.33541 16.7668 3.33331 17.0133V21.0133C3.33682 21.2762 3.44372 21.5272 3.63088 21.7118C3.81804 21.8965 4.07039 22 4.33331 22H19.6666C19.9319 22 20.1862 21.8946 20.3738 21.7071C20.5613 21.5196 20.6666 21.2652 20.6666 21V17C20.6613 16.7581 20.569 16.5261 20.4066 16.3467Z" fill="#E8ECEC"/>
<path d="M12 11.3333C14.5773 11.3333 16.6666 9.244 16.6666 6.66667C16.6666 4.08934 14.5773 2 12 2C9.42265 2 7.33331 4.08934 7.33331 6.66667C7.33331 9.244 9.42265 11.3333 12 11.3333Z" fill="#E8ECEC"/>
</g>
<defs>
<clipPath id="clip0_527_471">
<rect width="24" height="24" fill="white"/>
</clipPath>
</defs>
</svg>
