<svg width="48" height="48" viewBox="0 0 48 48" fill="none" xmlns="http://www.w3.org/2000/svg">
<path d="M13.6804 21.6C14.6404 16.8 18.9604 13.2 24.0004 13.2C27.6004 13.2 30.4804 14.88 32.4004 17.52L36.4804 12.72C33.6004 9.35995 29.0404 7.19995 24.0004 7.19995C15.6004 7.19995 8.64039 13.44 7.44039 21.6H2.40039L10.8004 31.1999L19.2004 21.6H13.6804ZM37.2004 16.8L28.8004 26.4H34.3204C33.1204 31.1999 29.0404 34.7999 24.0004 34.7999C20.4004 34.7999 17.5204 33.1199 15.6004 30.4799L11.5204 35.04C14.4004 38.64 18.9604 40.7999 24.0004 40.7999C32.4004 40.7999 39.3604 34.5599 40.5604 26.4H45.6004L37.2004 16.8Z" fill="#EC801D"/>
</svg>
