<svg width="24" height="24" viewBox="0 0 24 24" fill="none" xmlns="http://www.w3.org/2000/svg">
<path d="M12.5529 2.49402C12.4827 2.41717 12.3972 2.35579 12.3019 2.3138C12.2066 2.27181 12.1036 2.25012 11.9994 2.25012C11.8953 2.25012 11.7923 2.27181 11.697 2.3138C11.6017 2.35579 11.5162 2.41717 11.4459 2.49402L7.44594 6.86902C7.31416 7.01632 7.24584 7.20967 7.25584 7.40706C7.26585 7.60445 7.35336 7.78991 7.49936 7.92313C7.64536 8.05635 7.83804 8.12655 8.03552 8.11848C8.233 8.11041 8.4193 8.02471 8.55394 7.88002L11.2499 4.93002V16C11.2499 16.1989 11.329 16.3897 11.4696 16.5304C11.6103 16.671 11.801 16.75 11.9999 16.75C12.1989 16.75 12.3896 16.671 12.5303 16.5304C12.6709 16.3897 12.7499 16.1989 12.7499 16V4.93202L15.4469 7.88202C15.5813 8.02882 15.7684 8.11624 15.9672 8.12505C16.166 8.13387 16.3601 8.06335 16.5069 7.92902C16.6537 7.79469 16.7412 7.60754 16.75 7.40876C16.7588 7.20997 16.6883 7.01582 16.5539 6.86902L12.5529 2.49402Z" fill="#09203F"/>
<path d="M3.75 15C3.75 14.8011 3.67098 14.6103 3.53033 14.4697C3.38968 14.329 3.19891 14.25 3 14.25C2.80109 14.25 2.61032 14.329 2.46967 14.4697C2.32902 14.6103 2.25 14.8011 2.25 15V15.055C2.25 16.422 2.25 17.525 2.367 18.392C2.487 19.292 2.747 20.05 3.348 20.652C3.95 21.254 4.708 21.512 5.608 21.634C6.475 21.75 7.578 21.75 8.945 21.75H15.055C16.422 21.75 17.525 21.75 18.392 21.634C19.292 21.512 20.05 21.254 20.652 20.652C21.254 20.05 21.512 19.292 21.634 18.392C21.75 17.525 21.75 16.422 21.75 15.055V15C21.75 14.8011 21.671 14.6103 21.5303 14.4697C21.3897 14.329 21.1989 14.25 21 14.25C20.8011 14.25 20.6103 14.329 20.4697 14.4697C20.329 14.6103 20.25 14.8011 20.25 15C20.25 16.435 20.248 17.436 20.147 18.192C20.048 18.926 19.867 19.314 19.591 19.591C19.314 19.868 18.926 20.048 18.191 20.147C17.436 20.248 16.435 20.25 15 20.25H9C7.565 20.25 6.563 20.248 5.808 20.147C5.074 20.048 4.686 19.867 4.409 19.591C4.132 19.314 3.952 18.926 3.853 18.191C3.752 17.436 3.75 16.435 3.75 15Z" fill="#09203F"/>
</svg>
